<?xml version="1.0" encoding="UTF-8"?>
<!DOCTYPE svg PUBLIC "-//W3C//DTD SVG 1.1//EN" "http://www.w3.org/Graphics/SVG/1.1/DTD/svg11.dtd">
<!-- Creator: CorelDRAW 2019 (64-Bit) -->
<svg xmlns="http://www.w3.org/2000/svg" xml:space="preserve" width="62.7943mm" height="99.9999mm" version="1.1" style="shape-rendering:geometricPrecision; text-rendering:geometricPrecision; image-rendering:optimizeQuality; fill-rule:evenodd; clip-rule:evenodd"
viewBox="0 0 221.77 353.17"
 xmlns:xlink="http://www.w3.org/1999/xlink"
 xmlns:xodm="http://www.corel.com/coreldraw/odm/2003">
 <defs>
  <style type="text/css">
   <![CDATA[
    .fil0 {fill:#2B2A29}
   ]]>
  </style>
 </defs>
 <g id="Слой_x0020_1">
  <metadata id="CorelCorpID_0Corel-Layer"/>
  <path class="fil0" d="M109.68 127.94c-19.82,29.22 -37.83,23.58 -35.47,8.57 0.9,-5.74 2.8,-9.92 3.15,-16.53 0.45,-8.55 -2.11,-15.92 -0.32,-17.39 2.05,-1.58 8.4,1.4 13.44,-2.13 5.59,-3.92 2.82,-8.82 6.61,-8.86 1,-0.01 4.53,1.3 6.17,1.62 11.01,2.16 17.69,-1.09 21.09,-0.05 2.46,6.91 -9.88,27.72 -14.66,34.77zm-22.3 -37.69c-2.32,0.82 -9.63,-3.13 -12.6,-4.12 -9.43,-3.16 -11.88,-0.78 -11.33,-5.33 1.83,-1.43 11.91,1.77 14.1,2.59 7.03,2.66 11.39,3.53 9.84,6.86zm54.61 -70.54c0,-10.88 -8.82,-19.7 -19.7,-19.7 -10.88,0 -19.7,8.82 -19.7,19.7 0,8.12 4.91,15.09 11.93,18.11 -6.82,3.07 -12.69,7.5 -15.31,7.49 -5.15,-7.3 -9.53,-14.05 -15.82,-20.58 -11.01,-11.44 -8.71,-13.95 -14.51,-21.87 -9.2,0.26 -4.49,22.1 -2.63,28.26 1.54,5.1 9.58,22.47 8.1,26.73 -1.44,2.38 -30.97,13 -26.86,19.45 0.77,1.2 4.15,1.18 5.67,1.7 0.08,5.03 -1.78,8.42 -1.01,15.14 1.66,14.5 9.54,15.09 6.56,41.16 -1.54,13.47 -0.55,15.73 4.29,26.49 1.75,3.91 3.41,7.18 5.44,10.7 8.84,15.31 4.76,7.93 -3.43,20.6 -5.62,8.71 -8.35,19.36 -7.72,30.13 0.61,10.41 1.07,6 -4.93,12.06 -2.89,2.92 -6.83,5.97 -10.09,8.75 -7.75,6.62 -11.26,4.49 -20.73,1.68 -2.39,-0.71 -4.98,-1.03 -7.48,-1.67 -3.95,-1.02 -8.85,-5.75 -12.85,-5.08 -1.09,1.86 -1.45,4.59 -1.03,7.21 1.14,0.72 2.62,1.68 3.95,2.44 5.74,3.29 -0.8,4.78 -1.29,6.32 0.05,2.36 2,4.39 3.57,5.43 4.24,0.01 4.99,-1.52 7.85,1.13 -0.08,2.8 -1.08,1.19 -1.09,5.06 1.15,0.73 2.69,1.55 4.71,1.76 3.42,-2.99 5.29,-5.74 11.7,-6.88 13.2,-2.34 12.97,-8.47 21.63,-15.99 1.37,-2.16 11.59,-7.82 10.54,-1.82 -4.45,5.24 -7.18,10.5 -8.46,17.9 -1.78,10.32 -0.11,21.87 2.81,31.32 11.69,37.72 26.98,29.12 36.1,34.3 0.77,4.18 -5.39,12.61 0.78,21.82 2.35,3.51 4.24,3.59 9.64,3.9 17.71,1.01 32.74,0.94 29.67,-21.09 -2.31,-16.57 -5.91,-6.62 15.39,-21.56 18.87,-13.24 9.83,-17.54 23.68,-6.81 2.54,1.97 5.52,4.18 9.02,5.48 14.52,5.39 27.06,-21.81 21.99,-31.67 -4.3,-8.36 -17.65,-5.88 -20.51,-8.42 -1.95,-1.73 1.14,-3.59 0.22,-11.12 -1.21,-9.82 -8.98,-16.24 -15.31,-22.8 -5.94,-11.67 -30.3,-14.48 -20.39,-17.22 3.94,0.49 6.6,-4.79 10.56,-4.57 7.49,0.41 15.14,1.57 22.58,2.04 3.66,0.23 7.47,1.49 10.65,1.45 2.81,-0.04 7.16,-1.52 10.07,-2.16 5.82,-1.28 5.92,0.08 9.64,2.11 3.45,1.88 7.58,-1.23 7.15,-3.52 -1.91,-3.36 -4.61,-1.11 -3.53,-6.94 1.79,-0.95 5.15,-1.41 6.63,-2.97 1.42,-1.5 2.2,-4.55 1.17,-6.58 -2.34,-1.04 -3.87,0.16 -6.65,-0.46 -1.44,-4.82 2.96,-4.85 2.85,-8.25 -0.09,-3 -3.73,-5.12 -7.11,-5.03 -6.6,9.01 -7.12,12.94 -18.26,18.67 -7.65,3.94 -21.96,4.28 -30.61,3.22 -4.76,-0.58 -8.82,-0.34 -13.47,-1.6 -2.3,-0.62 -4.96,-1.49 -7.35,-1.8 -14.48,-1.86 -8.16,-1.55 -15.66,-11.73 -2.88,-3.91 -5.65,-6.38 -9.22,-8.96 -0.01,-3.92 0.64,-3 3.83,-7.54l13.69 -18.61c3.06,-4.05 5.71,-8.21 8.86,-12.58 11.61,-16.12 17.12,-23.96 15.63,-47.63 -0.46,-7.33 -5.51,-27.36 -4.97,-30.77 4.63,-3.05 21,-6.64 25.17,-3.09l-0.47 7.3c4.44,2.94 4.11,-0.43 6.79,-1.92 2.75,0.12 4.08,2.47 6.45,3.84 2.74,-0.43 3.76,-1.26 4.21,-3.87l-6.88 -8.08c-9.15,-9.21 -42.04,-7.63 -32.4,-13.53 18.43,-11.27 41,1.35 54.56,0.03 1.1,-1.62 2.86,-2.79 2.48,-5.76 -2.25,-1.43 -4.05,-1.08 -7.16,-1.43 -4.94,-0.54 -2.77,-1.9 -2.44,-4.71 0.33,-2.83 -2.56,-3.69 -4.63,-2.39l-4.8 3.25c-4.63,2.99 -15.48,-1.18 -29.35,0.3 -2.18,2.02 -16.58,6.38 -5.82,-9.6 14.41,-10.6 14.85,-1.1 23.64,-0.64 6.13,-5.82 0.45,-5.51 -1.58,-7.5 -1,-0.97 -0.99,-3.33 -1.54,-4.93 -7.66,-2.57 -19.29,4.46 -25.76,8.3 -4.95,2.94 -5.01,6.32 -7.3,11.01 -2.04,4.17 -11.17,6.01 -13.07,9.58 -0.78,-1.11 -1.58,-1.79 -2.17,-2.12 6.64,-3.17 11.23,-9.95 11.23,-17.79zm-36.37 50.18c-5.03,5.46 -31.56,1.61 -26.71,-3.13 2.14,-1.17 5.57,2.52 17.23,2.35 14.38,-0.21 3.16,-10.3 10.65,-9.05 1.58,2.84 0.69,7.8 -1.18,9.82zm-13.44 -21.15c-0.74,3.11 -13.62,10.37 -12.48,3.52 2.18,-1.56 4.61,-0.4 7.51,-3.02 0.91,-0.82 1.8,-2.33 2.82,-2.65 1.67,-0.52 2.52,0.55 2.14,2.15zm-5.77 -13.57c2.74,2.58 -5.72,10.83 -10.62,9.01 -1.09,-3.77 2.25,-2.85 5.12,-5.02 1.39,-1.06 3.68,-5.71 5.5,-3.99zm-5.92 -6.51c2.02,2.11 -3.25,6.91 -8.56,5.39 -0.77,-3.55 0.88,-2.45 3.66,-3.41 2.11,-0.73 2.7,-4.28 4.9,-1.98zm53.79 67.24c-2.48,-9.96 -11.67,-10.08 -8.21,-13.19 3.68,-3.32 14.91,13.19 11.65,16.6 -2.52,2.63 -2.98,-1.58 -3.44,-3.41zm-8.08 -36.97c-0.91,1.59 -3.38,2.93 -5.82,1.79 -4.67,-2.2 -3.36,-9.42 4.65,-8.26 1.01,1.57 2.85,3.53 1.17,6.47zm-1.54 -15.8c-1.29,2.03 -8.51,4 -11.46,3.1 -0.68,-3.65 1.84,-3.13 5.35,-4.04 2.91,-0.75 5.36,-2.17 6.11,0.95zm19.15 16.31c-4.82,2.2 -5.74,-5.55 -8.85,-8.67 -0.85,-0.85 -3.74,-3.95 -0.58,-3.76 3.27,0.19 5.91,9.41 7.99,10.14 2.29,-1.9 -1.91,-4.24 -0.47,-6.8 2.95,-1.18 5.51,7.45 1.91,9.09zm-34.59 -3.27c-5.41,2.77 -10.05,-5.14 -3.74,-7.55 5.59,-2.13 7.76,5.49 3.74,7.55zm16.66 157.5c-2.81,0.63 -12.49,-3.2 -14.76,-4.91 -3.33,-2.49 -3.68,-12.56 5.05,-10.4 5.15,1.27 4.15,4.73 0.06,3.8 -2,-0.45 -2.69,-1.7 -3.44,0.17 -1.69,4.21 3.26,5.1 8.16,6.84 3.35,1.2 5.53,0.99 4.93,4.5zm-18.09 -31.86c0.5,1.72 0.41,1.96 -1.06,2.92 -2.59,1.69 -6.12,3.21 -9.15,3.97 -13.51,3.36 -18.77,-4.23 -13.61,-3.66 1.44,0.16 4.88,2.52 11.22,1.29 8.62,-1.66 9.64,-5.29 12.6,-4.52zm-43.44 -92.57c0.18,1.37 -0.14,4.75 -0.06,6.54 0.47,10.53 3.89,3.88 3.03,9.54 -7,2.75 -7.86,-13.75 -6.17,-16.97 0.96,-1.84 2.83,-1.89 3.2,0.89zm131.57 122.64c-3.68,0.95 -3.15,-2.33 -0.59,-4.03 7.51,-5 10.33,0.05 11.37,-6.13 -3.11,-0.97 -2.56,-0.34 -3.22,-1.47 -1.58,-2.68 5.41,-4.95 6.54,-0.02 1.57,6.89 -3.23,7.79 -8.31,8.71 -3.11,0.56 -4.11,2.51 -5.79,2.95zm-77.43 20.87c-9.1,7.1 -20.53,12.13 -32.42,12.89 -3.3,0.21 -14.88,0.38 -16.45,-1.97 -4.11,-6.16 18.56,6.42 42.29,-10.03 6.83,-4.74 7.81,-7.74 10.55,-6.51 0.26,2.64 -2.48,4.45 -3.97,5.62zm-31.09 -24.8c15.1,-4.32 21.32,17.78 7.2,22.8 -7.73,2.75 -12.59,-2.23 -14.18,-8.44 -2,-7.8 0.27,-12.44 6.98,-14.37zm15.18 40.83c9.42,-1.64 12.84,4.59 13.6,13.12 0.89,10.08 -4.27,13.73 -14.08,13.67 -9.19,-0.06 -13.57,-8.12 -13.78,-13.71 -0.33,-8.8 6.25,-11.68 14.27,-13.08zm72.1 27.34c2.13,-1.83 1.87,1.3 1.21,2.75 -6.71,14.68 -10.92,11.21 -8,7.81 2.83,-3.3 6.79,-10.56 6.79,-10.56zm-51.5 4.46c17.16,-3.29 21.51,25.67 3.67,26.03 -19.23,0.39 -20.04,-22.89 -3.67,-26.03zm-23.38 46.13c-0.05,-3.75 1.61,-2.52 4.98,-2.37l12 -1.45c1.73,-0.5 4.24,-2.29 4.83,-0.2 1.32,4.61 -19.08,5.49 -21.81,4.02zm30.7 -307.22c0,4.84 -3.92,8.76 -8.76,8.76 -4.84,0 -8.76,-3.92 -8.76,-8.76 0,-4.84 3.92,-8.76 8.76,-8.76 4.84,0 8.76,3.92 8.76,8.76z"/>
 </g>
</svg>
